<mxfile host="app.diagrams.net" modified="2024-01-11T20:52:20.094Z" agent="Mozilla/5.0 (Windows NT 10.0; Win64; x64) AppleWebKit/537.36 (KHTML, like Gecko) Chrome/120.0.0.0 Safari/537.36" etag="Fkd3qtXcXAMUZ2IFwuhM" version="22.1.18" type="github">
  <diagram name="Page-1" id="aM4i8X6o--tSt7t3sqs4">
    <mxGraphModel dx="1050" dy="557" grid="1" gridSize="10" guides="1" tooltips="1" connect="1" arrows="1" fold="1" page="1" pageScale="1" pageWidth="850" pageHeight="1100" math="0" shadow="0">
      <root>
        <mxCell id="0" />
        <mxCell id="1" parent="0" />
        <mxCell id="DKn6yU0FKnWCuzOSTYic-1" value="" style="shape=umlLifeline;perimeter=lifelinePerimeter;whiteSpace=wrap;html=1;container=1;dropTarget=0;collapsible=0;recursiveResize=0;outlineConnect=0;portConstraint=eastwest;newEdgeStyle={&quot;curved&quot;:0,&quot;rounded&quot;:0};participant=umlActor;size=50;" vertex="1" parent="1">
          <mxGeometry x="130" y="20" width="30" height="420" as="geometry" />
        </mxCell>
        <mxCell id="DKn6yU0FKnWCuzOSTYic-2" value="Collateral" style="shape=umlLifeline;perimeter=lifelinePerimeter;whiteSpace=wrap;html=1;container=1;dropTarget=0;collapsible=0;recursiveResize=0;outlineConnect=0;portConstraint=eastwest;newEdgeStyle={&quot;curved&quot;:0,&quot;rounded&quot;:0};" vertex="1" parent="1">
          <mxGeometry x="360" y="40" width="100" height="400" as="geometry" />
        </mxCell>
        <mxCell id="DKn6yU0FKnWCuzOSTYic-7" value="" style="html=1;points=[[0,0,0,0,5],[0,1,0,0,-5],[1,0,0,0,5],[1,1,0,0,-5]];perimeter=orthogonalPerimeter;outlineConnect=0;targetShapes=umlLifeline;portConstraint=eastwest;newEdgeStyle={&quot;curved&quot;:0,&quot;rounded&quot;:0};" vertex="1" parent="DKn6yU0FKnWCuzOSTYic-2">
          <mxGeometry x="45" y="90" width="10" height="30" as="geometry" />
        </mxCell>
        <mxCell id="DKn6yU0FKnWCuzOSTYic-3" value="Applicant/User" style="text;html=1;align=center;verticalAlign=middle;resizable=0;points=[];autosize=1;strokeColor=none;fillColor=none;" vertex="1" parent="1">
          <mxGeometry x="95" y="70" width="100" height="30" as="geometry" />
        </mxCell>
        <mxCell id="DKn6yU0FKnWCuzOSTYic-5" value="LoanApplication" style="shape=umlLifeline;perimeter=lifelinePerimeter;whiteSpace=wrap;html=1;container=1;dropTarget=0;collapsible=0;recursiveResize=0;outlineConnect=0;portConstraint=eastwest;newEdgeStyle={&quot;curved&quot;:0,&quot;rounded&quot;:0};" vertex="1" parent="1">
          <mxGeometry x="520" y="40" width="100" height="400" as="geometry" />
        </mxCell>
        <mxCell id="DKn6yU0FKnWCuzOSTYic-6" value="WorkflowTasksProcesses" style="shape=umlLifeline;perimeter=lifelinePerimeter;whiteSpace=wrap;html=1;container=1;dropTarget=0;collapsible=0;recursiveResize=0;outlineConnect=0;portConstraint=eastwest;newEdgeStyle={&quot;curved&quot;:0,&quot;rounded&quot;:0};" vertex="1" parent="1">
          <mxGeometry x="660" y="40" width="140" height="400" as="geometry" />
        </mxCell>
        <mxCell id="DKn6yU0FKnWCuzOSTYic-10" value="" style="html=1;points=[[0,0,0,0,5],[0,1,0,0,-5],[1,0,0,0,5],[1,1,0,0,-5]];perimeter=orthogonalPerimeter;outlineConnect=0;targetShapes=umlLifeline;portConstraint=eastwest;newEdgeStyle={&quot;curved&quot;:0,&quot;rounded&quot;:0};" vertex="1" parent="DKn6yU0FKnWCuzOSTYic-6">
          <mxGeometry x="65" y="140" width="10" height="150" as="geometry" />
        </mxCell>
        <mxCell id="DKn6yU0FKnWCuzOSTYic-8" value="Provides Collateral Details" style="html=1;verticalAlign=bottom;endArrow=block;curved=0;rounded=0;" edge="1" parent="1">
          <mxGeometry width="80" relative="1" as="geometry">
            <mxPoint x="144.5" y="130" as="sourcePoint" />
            <mxPoint x="405" y="130" as="targetPoint" />
          </mxGeometry>
        </mxCell>
        <mxCell id="DKn6yU0FKnWCuzOSTYic-9" value="Acknowledges Collateral Information Received" style="html=1;verticalAlign=bottom;endArrow=open;dashed=1;endSize=8;curved=0;rounded=0;" edge="1" parent="1" source="DKn6yU0FKnWCuzOSTYic-7" target="DKn6yU0FKnWCuzOSTYic-1">
          <mxGeometry relative="1" as="geometry">
            <mxPoint x="350" y="160" as="sourcePoint" />
            <mxPoint x="270" y="160" as="targetPoint" />
            <Array as="points">
              <mxPoint x="300" y="160" />
            </Array>
          </mxGeometry>
        </mxCell>
        <mxCell id="DKn6yU0FKnWCuzOSTYic-11" value="Initiates Collateral Verification" style="html=1;verticalAlign=bottom;endArrow=block;curved=0;rounded=0;" edge="1" parent="1">
          <mxGeometry width="80" relative="1" as="geometry">
            <mxPoint x="412.25" y="180" as="sourcePoint" />
            <mxPoint x="727.75" y="180" as="targetPoint" />
          </mxGeometry>
        </mxCell>
        <mxCell id="DKn6yU0FKnWCuzOSTYic-12" value="Requests Verification Process" style="html=1;verticalAlign=bottom;endArrow=block;curved=0;rounded=0;" edge="1" parent="1">
          <mxGeometry width="80" relative="1" as="geometry">
            <mxPoint x="725" y="210" as="sourcePoint" />
            <mxPoint x="409.5" y="210" as="targetPoint" />
          </mxGeometry>
        </mxCell>
        <mxCell id="DKn6yU0FKnWCuzOSTYic-13" value="Begins Verification Process" style="html=1;verticalAlign=bottom;endArrow=block;curved=0;rounded=0;dashed=1;" edge="1" parent="1" source="DKn6yU0FKnWCuzOSTYic-2" target="DKn6yU0FKnWCuzOSTYic-10">
          <mxGeometry width="80" relative="1" as="geometry">
            <mxPoint x="520" y="310" as="sourcePoint" />
            <mxPoint x="600" y="310" as="targetPoint" />
          </mxGeometry>
        </mxCell>
        <mxCell id="DKn6yU0FKnWCuzOSTYic-14" value="Collateral Evaluation Process" style="shape=note;whiteSpace=wrap;html=1;backgroundOutline=1;darkOpacity=0.05;size=15;" vertex="1" parent="1">
          <mxGeometry x="640" y="260" width="160" height="40" as="geometry" />
        </mxCell>
        <mxCell id="DKn6yU0FKnWCuzOSTYic-15" value="Verification Result" style="html=1;verticalAlign=bottom;endArrow=open;dashed=1;endSize=8;curved=0;rounded=0;" edge="1" parent="1">
          <mxGeometry relative="1" as="geometry">
            <mxPoint x="725" y="330" as="sourcePoint" />
            <mxPoint x="409.5" y="330" as="targetPoint" />
          </mxGeometry>
        </mxCell>
        <mxCell id="DKn6yU0FKnWCuzOSTYic-16" value="Sends Collateral Verification Result" style="html=1;verticalAlign=bottom;endArrow=block;curved=0;rounded=0;dashed=1;" edge="1" parent="1">
          <mxGeometry width="80" relative="1" as="geometry">
            <mxPoint x="409.5" y="390" as="sourcePoint" />
            <mxPoint x="569.5" y="390" as="targetPoint" />
          </mxGeometry>
        </mxCell>
      </root>
    </mxGraphModel>
  </diagram>
</mxfile>
